<svg xmlns="http://www.w3.org/2000/svg" width="32" height="32" viewBox="0 0 32 32" id="shopping-bag"><path style="line-height:normal;font-variant-ligatures:normal;font-variant-position:normal;font-variant-caps:normal;font-variant-numeric:normal;font-variant-alternates:normal;font-variant-east-asian:normal;font-feature-settings:normal;font-variation-settings:normal;text-indent:0;text-align:start;text-decoration-line:none;text-decoration-style:solid;text-decoration-color:#000;text-transform:none;text-orientation:mixed;white-space:normal;shape-padding:0;shape-margin:0;inline-size:0;isolation:auto;mix-blend-mode:normal;solid-color:#000;solid-opacity:1" d="m 16,2 c -3.3067,0 -6,2.6932972 -6,6 v 2 H 5.8418 C 3.43737,10 1.55161,12.195067 2.09375,14.509766 L 4.91992,26.580078 C 5.39289,28.59942 7.26383,30 9.37305,30 h 13.2539 c 2.10922,0 3.98016,-1.40058 4.45313,-3.419922 L 29.90625,14.509766 C 30.44839,12.195067 28.56263,10 26.1582,10 H 22 V 8 C 22,4.6932972 19.3067,2 16,2 Z m 0,2 c 2.2333,0 4,1.7667028 4,4 v 2 H 12 V 8 C 12,5.7667028 13.7667,4 16,4 Z M 5.8418,12 h 20.3164 c 1.23298,0 2.0477,1.000459 1.80078,2.054688 L 25.13281,26.125 C 24.88128,27.198945 23.85754,28 22.62695,28 H 9.37305 C 8.14246,28 7.11872,27.198945 6.86719,26.125 L 4.04102,14.054688 C 3.7941,13.000459 4.60882,12 5.8418,12 Z" color="#000" enable-background="accumulate" font-family="sans-serif" font-weight="400" overflow="visible"></path><path style="line-height:normal;font-variant-ligatures:normal;font-variant-position:normal;font-variant-caps:normal;font-variant-numeric:normal;font-variant-alternates:normal;font-variant-east-asian:normal;font-feature-settings:normal;font-variation-settings:normal;text-indent:0;text-align:start;text-decoration-line:none;text-decoration-style:solid;text-decoration-color:#000;text-transform:none;text-orientation:mixed;white-space:normal;shape-padding:0;shape-margin:0;inline-size:0;isolation:auto;mix-blend-mode:normal;solid-color:#000;solid-opacity:1" d="m 11,14 a 1,1 0 0 0 -1,1 c 0,3.306703 2.6933,6 6,6 3.3067,0 6,-2.693297 6,-6 a 1,1 0 0 0 -1,-1 1,1 0 0 0 -1,1 c 0,2.233297 -1.7667,4 -4,4 -2.2333,0 -4,-1.766703 -4,-4 a 1,1 0 0 0 -1,-1 z" color="#000" enable-background="accumulate" font-family="sans-serif" font-weight="400" overflow="visible"></path></svg>